<?xml version="1.0" standalone="no"?>
<!DOCTYPE svg PUBLIC "-//W3C//DTD SVG 20010904//EN"
 "http://www.w3.org/TR/2001/REC-SVG-20010904/DTD/svg10.dtd">
<svg version="1.0" xmlns="http://www.w3.org/2000/svg"
 width="357.000000pt" height="237.000000pt" viewBox="0 0 357.000000 237.000000"
 preserveAspectRatio="xMidYMid meet">

<g transform="translate(0.000000,237.000000) scale(0.100000,-0.100000)"
fill="#000000" stroke="none">
<path d="M1623 2290 c-671 -95 -1105 -742 -934 -1391 156 -590 770 -947 1362
-790 567 151 924 728 804 1301 -92 437 -429 773 -868 866 -88 18 -280 26 -364
14z m427 -552 c0 -7 -5 -30 -10 -50 -8 -26 -17 -38 -33 -40 -19 -3 -25 -17
-48 -123 -15 -66 -35 -134 -44 -151 -27 -51 -80 -74 -169 -74 -42 0 -76 3 -76
8 0 4 5 24 11 45 10 35 12 37 53 37 68 0 84 20 112 135 13 55 24 106 24 113 0
9 -50 12 -218 12 l-218 0 -49 50 -49 50 357 0 c279 0 357 -3 357 -12z m-236
-155 c-4 -16 -9 -31 -11 -35 -2 -5 -61 -8 -131 -8 -127 1 -127 1 -159 30 -18
16 -33 32 -33 35 0 3 77 5 170 5 l170 0 -6 -27z m-24 -90 c-1 -56 -9 -63 -74
-63 -59 0 -64 2 -101 40 l-39 40 107 0 c95 0 107 -2 107 -17z m640 -353 c12
-7 12 -12 -4 -29 -11 -12 -30 -21 -43 -21 -24 0 -24 0 -6 30 18 32 29 36 53
20z m-1262 -176 c-3 -97 -5 -107 -27 -125 -31 -25 -92 -25 -122 0 -22 18 -22
21 -9 35 13 13 21 14 48 4 43 -17 52 -3 52 80 l0 62 -45 0 c-41 0 -45 2 -45
25 0 24 2 25 76 25 l76 0 -4 -106z m269 86 c40 -24 56 -54 56 -105 0 -75 -54
-125 -133 -125 -77 0 -130 53 -130 127 1 47 17 78 56 104 38 25 109 25 151 -1z
m303 -5 c0 -22 -4 -25 -40 -25 l-40 0 0 -101 0 -100 -27 3 -28 3 -3 98 -3 97
-34 0 c-31 0 -35 3 -35 25 l0 25 105 0 105 0 0 -25z m222 -93 c26 -63 48 -118
48 -123 0 -5 -13 -9 -30 -9 -23 0 -31 5 -36 25 -6 23 -11 25 -63 25 -52 0 -59
-3 -69 -25 -9 -18 -19 -25 -41 -25 l-30 0 41 93 c22 50 46 107 54 125 12 29
18 33 45 30 31 -3 34 -8 81 -116z m248 18 c0 -94 -2 -103 -25 -125 -29 -30
-89 -33 -123 -7 -19 15 -21 20 -9 35 11 16 17 17 39 6 47 -21 58 -8 58 70 l0
70 -42 3 c-36 2 -44 7 -46 26 -3 21 0 22 72 22 l76 0 0 -100z m256 -10 c62
-147 61 -140 26 -140 -21 0 -32 7 -40 25 -10 22 -18 25 -67 25 -50 0 -56 -2
-65 -25 -7 -19 -17 -25 -40 -25 l-30 0 14 33 c61 141 87 201 92 209 3 5 19 8
36 6 28 -3 33 -10 74 -108z"/>
<path d="M1310 1000 c-28 -28 -26 -81 3 -108 49 -46 121 -14 121 53 0 66 -78
101 -124 55z"/>
<path d="M1858 960 l-17 -40 35 0 c19 0 34 2 34 5 0 8 -29 75 -32 75 -2 0 -11
-18 -20 -40z"/>
<path d="M2367 960 l-15 -40 34 0 c19 0 34 2 34 4 0 7 -30 76 -34 76 -1 0 -10
-18 -19 -40z"/>
</g>
</svg>
